# xmcd
#
# Track frame offsets:
#	150
#	23655
#	47680
#	66905
#	86745
#	107457
#	126062
#	144782
#	164645
#	185765
#	207370
#	224040
#
# Disc length: 3190 seconds
#
# Revision: 1
# Processed by: cddbd v1.5PL3 Copyright (c) Steve Scherf et al.
# Submitted via: CDex 1.50Beta5
#
DISCID=b00c740c
DTITLE=Ra.D - Gotta Be
DYEAR=1900
DGENRE=R&B
TTITLE0=Gatta Be
TTITLE1=Trippin'
TTITLE2=Digging The Bay
TTITLE3=Come My Way
TTITLE4=432 F
TTITLE5=Never Say Never
TTITLE6=Venus Drops
TTITLE7=So Complete
TTITLE8=Sister
TTITLE9=Lately
TTITLE10=Sister (Heavy Funk Rad.Io Re-Mix)
TTITLE11=So Complete (Rad.Io Vocal Version)
EXTD=
EXTT0=
EXTT1=
EXTT2=
EXTT3=
EXTT4=
EXTT5=
EXTT6=
EXTT7=
EXTT8=
EXTT9=
EXTT10=
EXTT11=
PLAYORDER=
